<svg xmlns="http://www.w3.org/2000/svg" width="16.562" height="19.063" viewBox="0 0 16.562 19.063">
  <path id="_16479521831656048290" data-name="16479521831656048290" d="M36.7,25.016c1.04-.016,2.073-.007,3.106-.016a4.948,4.948,0,0,0,1.39,3.314,5.609,5.609,0,0,0,3.367,1.421v3.2a8.437,8.437,0,0,1-3.336-.769,9.649,9.649,0,0,1-1.287-.739c-.005,2.321.01,4.639-.015,6.95a6.047,6.047,0,0,1-1.074,3.131,5.914,5.914,0,0,1-4.694,2.547,5.78,5.78,0,0,1-3.239-.816,5.985,5.985,0,0,1-2.9-4.537c-.019-.4-.026-.794-.01-1.182a5.985,5.985,0,0,1,6.934-5.309c.016,1.177-.031,2.352-.031,3.529a2.733,2.733,0,0,0-3.481,1.685,3.158,3.158,0,0,0-.108,1.278,2.711,2.711,0,0,0,4.98,1,1.873,1.873,0,0,0,.326-.844c.078-1.421.047-2.836.057-4.257.007-3.2-.01-6.4.015-9.587Z" transform="translate(-28 -25)" fill="#fff"/>
</svg>
