<svg xmlns="http://www.w3.org/2000/svg" width="12.294" height="21.329" viewBox="0 0 12.294 21.329">
  <g id="Group_85862" data-name="Group 85862" transform="translate(0.5 0.5)">
    <path id="Icon_color" data-name="Icon color" d="M10.729,3.388H7.341A1.129,1.129,0,0,0,6.212,4.518V7.906h4.518a.4.4,0,0,1,.384.52l-.836,2.485a.565.565,0,0,1-.531.384H6.212v8.471a.565.565,0,0,1-.565.565H2.824a.565.565,0,0,1-.565-.565V11.294H.565A.565.565,0,0,1,0,10.729V8.471a.565.565,0,0,1,.565-.565H2.259V4.518A4.518,4.518,0,0,1,6.776,0h3.953a.565.565,0,0,1,.565.565V2.824A.565.565,0,0,1,10.729,3.388Z" fill="#fff" stroke="rgba(0,0,0,0)" stroke-miterlimit="10" stroke-width="1"/>
  </g>
</svg>
