<svg xmlns="http://www.w3.org/2000/svg" width="24.279" height="17.929" viewBox="0 0 24.279 17.929">
  <path id="Icon_color" data-name="Icon color" d="M11.667,16.929H11.64a66.877,66.877,0,0,1-6.92-.36L3.175,16.41A3.564,3.564,0,0,1,0,12.8V4.126A3.566,3.566,0,0,1,3.175.518L4.656.36a67.3,67.3,0,0,1,13.9,0L20.1.518a3.565,3.565,0,0,1,3.174,3.608V12.8A3.564,3.564,0,0,1,20.1,16.41l-1.513.159A66.942,66.942,0,0,1,11.667,16.929ZM11.64,2.116a65.357,65.357,0,0,0-6.729.349l-1.545.159a1.456,1.456,0,0,0-1.248,1.5V12.8a1.457,1.457,0,0,0,1.248,1.5l1.545.159a65.23,65.23,0,0,0,6.729.349,65.193,65.193,0,0,0,6.729-.349l1.545-.159a1.457,1.457,0,0,0,1.248-1.5V4.126a1.456,1.456,0,0,0-1.248-1.5l-1.545-.159A65.348,65.348,0,0,0,11.64,2.116Zm-1.323,9.892a.794.794,0,0,1-.794-.792v-5.5a.794.794,0,0,1,1.238-.656l4.117,2.751a.784.784,0,0,1,0,1.312l-4.117,2.751A.792.792,0,0,1,10.316,12.007Z" transform="translate(0.5 0.5)" fill="#fff" stroke="rgba(0,0,0,0)" stroke-miterlimit="10" stroke-width="1"/>
</svg>
