<svg xmlns="http://www.w3.org/2000/svg" width="21.145" height="21.145" viewBox="0 0 21.145 21.145">
  <g id="Group_85863" data-name="Group 85863" transform="translate(0.5 0.5)">
    <path id="Icon_color" data-name="Icon color" d="M14.549,20.145H5.6a5.6,5.6,0,0,1-5.6-5.6V5.6A5.6,5.6,0,0,1,5.6,0h8.952a5.6,5.6,0,0,1,5.6,5.6v8.952A5.6,5.6,0,0,1,14.549,20.145ZM5.6,1.958A3.661,3.661,0,0,0,1.958,5.6v8.952A3.661,3.661,0,0,0,5.6,18.187h8.952a3.661,3.661,0,0,0,3.638-3.638V5.6a3.661,3.661,0,0,0-3.638-3.638Zm4.476,13.151a5.036,5.036,0,0,1,0-10.073h.011a5.036,5.036,0,0,1-.011,10.073Zm0-8.114a3.078,3.078,0,1,0,3.078,3.078A3.082,3.082,0,0,0,10.073,6.994Zm5.316-1.119a1.119,1.119,0,1,1,1.119-1.119A1.12,1.12,0,0,1,15.389,5.875Z" transform="translate(0 0)" fill="#fff" stroke="rgba(0,0,0,0)" stroke-miterlimit="10" stroke-width="1"/>
  </g>
</svg>
