 <svg
    id="_17195034701555589927"
    data-name="17195034701555589927"
    xmlns="http://www.w3.org/2000/svg"
    width="1em"
    height="1em"
    viewBox="0 0 24 24"
  >
    <circle
      id="Ellipse_29"
      data-name="Ellipse 29"
      cx="12"
      cy="12"
      r="12"
      fill="#65a2d9"
    />
    <path
      id="Path_35"
      data-name="Path 35"
      d="M123.909,139.326a23.392,23.392,0,0,0-3.513,3.368c-2.5,3.017-5.56,7.3-9.721,6.66l7.435,7.425A12,12,0,0,0,129.485,144.9Z"
      transform="translate(-105.486 -132.795)"
      fill="#3a7ca5"
    />
    <path
      id="Path_36"
      data-name="Path 36"
      d="M122.985,135.443a5.429,5.429,0,0,1-.947.319,2.952,2.952,0,0,0,.78-1.241.155.155,0,0,0-.227-.18,5.464,5.464,0,0,1-1.448.6.367.367,0,0,1-.09.011.384.384,0,0,1-.254-.1,2.961,2.961,0,0,0-1.96-.74,3.165,3.165,0,0,0-.938.145,2.87,2.87,0,0,0-1.934,2.067,3.16,3.16,0,0,0-.07,1.09.106.106,0,0,1-.027.083.11.11,0,0,1-.082.037h-.01a7.766,7.766,0,0,1-5.338-2.852.155.155,0,0,0-.254.02,2.965,2.965,0,0,0,.482,3.6,2.656,2.656,0,0,1-.676-.262.155.155,0,0,0-.23.134,2.966,2.966,0,0,0,1.73,2.732h-.063a2.652,2.652,0,0,1-.5-.048.155.155,0,0,0-.177.2,2.968,2.968,0,0,0,2.345,2.019,5.465,5.465,0,0,1-3.061.93h-.342a.227.227,0,0,0-.222.171.235.235,0,0,0,.112.259,8.128,8.128,0,0,0,4.085,1.1,8.238,8.238,0,0,0,3.491-.741,7.708,7.708,0,0,0,2.554-1.914,8.39,8.39,0,0,0,1.564-2.619,8.275,8.275,0,0,0,.532-2.867v-.045a.5.5,0,0,1,.189-.392,5.856,5.856,0,0,0,1.178-1.292.155.155,0,0,0-.191-.228Z"
      transform="translate(-104.334 -127.827)"
      fill="#fff"
    />
    <path
      id="Path_37"
      data-name="Path 37"
      d="M262.1,135.443a5.432,5.432,0,0,1-.947.319,2.952,2.952,0,0,0,.78-1.241.155.155,0,0,0-.227-.18,5.464,5.464,0,0,1-1.448.6.366.366,0,0,1-.09.011.384.384,0,0,1-.254-.1,2.961,2.961,0,0,0-1.96-.74,3.165,3.165,0,0,0-.938.145,2.869,2.869,0,0,0-1.593,1.244v9.632a7.674,7.674,0,0,0,3.407-2.248,8.39,8.39,0,0,0,1.564-2.619,8.275,8.275,0,0,0,.532-2.867v-.045a.5.5,0,0,1,.189-.392,5.855,5.855,0,0,0,1.178-1.292A.155.155,0,0,0,262.1,135.443Z"
      transform="translate(-243.451 -127.827)"
      fill="#d1d1d1"
    />
  </svg>