<svg
    id="_19462093391555589929"
    data-name="19462093391555589929"
    xmlns="http://www.w3.org/2000/svg"
    width="1em"
    height="1em"
    viewBox="0 0 24 24"
  >
    <circle
      id="Ellipse_30"
      data-name="Ellipse 30"
      cx="12"
      cy="12"
      r="12"
      fill="#d22215"
    />
    <path
      id="Path_38"
      data-name="Path 38"
      d="M140.659,170.339c-.36.11-.735.2-1.111.3-2.667.566-6.224-.97-7.76,1.536-1.281,1.992-1.685,4.486-3.142,6.267l7.783,7.783a12.012,12.012,0,0,0,10.056-10.058Z"
      transform="translate(-122.614 -162.352)"
      fill="#a81411"
    />
    <path
      id="Path_39"
      data-name="Path 39"
      d="M120.384,152.333h-8.032a2.853,2.853,0,0,0-2.853,2.853V159.2a2.853,2.853,0,0,0,2.853,2.853h8.032a2.853,2.853,0,0,0,2.853-2.853v-4.015a2.853,2.853,0,0,0-2.853-2.853Zm-1.93,5.056-3.757,1.792a.151.151,0,0,1-.216-.136v-3.7a.151.151,0,0,1,.219-.135l3.757,1.9a.151.151,0,0,1,0,.271Z"
      transform="translate(-104.365 -145.19)"
      fill="#fff"
    />
    <path
      id="Path_40"
      data-name="Path 40"
      d="M258.373,152.333h-4.1v3.686l2.17,1.1a.151.151,0,0,1,0,.271l-2.167,1.034v3.632h4.1a2.853,2.853,0,0,0,2.853-2.853v-4.015A2.853,2.853,0,0,0,258.373,152.333Z"
      transform="translate(-242.353 -145.19)"
      fill="#d1d1d1"
    />
  </svg>