<svg
    xmlns="http://www.w3.org/2000/svg"
    xmlns:xlink="http://www.w3.org/1999/xlink"
    width="1em"
    height="1em"
    viewBox="0 0 24 24"
  >
    <defs>
      <radialGradient
        id="radial-gradient"
        cx="-0.025"
        cy="1.004"
        r="1.85"
        gradientTransform="translate(0)"
        gradientUnits="objectBoundingBox"
      >
        <stop offset="0" stop-color="#f4ec55" />
        <stop offset="0.241" stop-color="#e48242" />
        <stop offset="0.346" stop-color="#d66863" />
        <stop offset="0.442" stop-color="#cd4f74" />
        <stop offset="0.489" stop-color="#c94379" />
        <stop offset="1" stop-color="#3f56a6" />
      </radialGradient>
    </defs>
    <g id="XMLID_1346_" transform="translate(-2.4 -1.1)">
      <path
        id="XMLID_1418_"
        d="M14.383,25.1h0A11.971,11.971,0,0,1,2.4,13.117h0A12.028,12.028,0,0,1,14.417,1.1h0A12.021,12.021,0,0,1,26.4,13.117h0A12,12,0,0,1,14.383,25.1Z"
        fill="url(#radial-gradient)"
      />
      <g id="XMLID_1347_" transform="translate(7.789 6.523)">
        <path
          id="XMLID_1352_"
          d="M25.094,18.505c1.774,0,1.975,0,2.644.033a3.6,3.6,0,0,1,1.238.234,2.356,2.356,0,0,1,.77.5,2.051,2.051,0,0,1,.5.77,3.422,3.422,0,0,1,.234,1.238c.033.7.033.9.033,2.644,0,1.774,0,1.975-.033,2.644a3.6,3.6,0,0,1-.234,1.238,2.356,2.356,0,0,1-.5.77,2.051,2.051,0,0,1-.77.5,3.421,3.421,0,0,1-1.238.234c-.7.033-.9.033-2.644.033-1.774,0-1.975,0-2.644-.033a3.6,3.6,0,0,1-1.238-.234,2.356,2.356,0,0,1-.77-.5,2.051,2.051,0,0,1-.5-.77,3.421,3.421,0,0,1-.234-1.238c-.033-.7-.033-.9-.033-2.644,0-1.774,0-1.975.033-2.644a3.6,3.6,0,0,1,.234-1.238,2.356,2.356,0,0,1,.5-.77,2.051,2.051,0,0,1,.77-.5,3.422,3.422,0,0,1,1.238-.234c.7-.033.9-.033,2.644-.033m0-1.205c-1.774,0-2.008,0-2.711.033a4.9,4.9,0,0,0-1.607.3,3.46,3.46,0,0,0-1.941,1.941,4.9,4.9,0,0,0-.3,1.607c-.033.7-.033.937-.033,2.711s0,2.008.033,2.711a4.9,4.9,0,0,0,.3,1.607,3.46,3.46,0,0,0,1.941,1.941,4.9,4.9,0,0,0,1.607.3c.7.033.937.033,2.711.033s2.008,0,2.711-.033a4.9,4.9,0,0,0,1.607-.3,3.46,3.46,0,0,0,1.941-1.941,4.9,4.9,0,0,0,.3-1.607c.033-.7.033-.937.033-2.711s0-2.008-.033-2.711a4.9,4.9,0,0,0-.3-1.607,3.46,3.46,0,0,0-1.941-1.941,4.9,4.9,0,0,0-1.607-.3c-.669-.033-.9-.033-2.711-.033"
          transform="translate(-18.5 -17.3)"
          fill="#fff"
        />
        <path
          id="XMLID_1349_"
          d="M31.481,26.9a3.381,3.381,0,1,0,3.381,3.381A3.371,3.371,0,0,0,31.481,26.9m0,5.556a2.209,2.209,0,1,1,2.209-2.209,2.207,2.207,0,0,1-2.209,2.209"
          transform="translate(-24.887 -23.687)"
          fill="#fff"
        />
        <path
          id="XMLID_1348_"
          d="M47.907,24.9a.8.8,0,1,1-.8-.8.815.815,0,0,1,.8.8"
          transform="translate(-36.995 -21.824)"
          fill="#fff"
        />
      </g>
    </g>
  </svg>