 <svg
    id="_9288560811555589926"
    data-name="9288560811555589926"
    xmlns="http://www.w3.org/2000/svg"
    width="1em"
    height="1em"
    viewBox="0 0 24 24"
  >
    <circle
      id="Ellipse_28"
      data-name="Ellipse 28"
      cx="12"
      cy="12"
      r="12"
      fill="#7aa5da"
    />
    <path
      id="Path_15"
      data-name="Path 15"
      d="M227.1,141.915l-5.3-5.29-8.631,10.52,6.214,6.214a11.94,11.94,0,0,0,7.718-11.169C227.108,142.1,227.106,142.007,227.1,141.915Z"
      transform="translate(-203.236 -130.255)"
      fill="#5786b5"
    />
    <path
      id="Path_16"
      data-name="Path 16"
      d="M122.252,132.6a.643.643,0,0,1,.863.731l-2.134,10.2a.672.672,0,0,1-1.055.4L116.7,141.57l-1.642,1.677a.546.546,0,0,1-.91-.218l-1.185-3.761-3.176-.938a.456.456,0,0,1-.037-.862Zm-1.567,2.263a.151.151,0,0,0-.18-.242l-6.855,4.251a.312.312,0,0,0-.133.358l.935,4.1a.06.06,0,0,0,.117-.011l.209-3.128a.309.309,0,0,1,.1-.2Z"
      transform="translate(-104.361 -126.373)"
      fill="#fff"
    />
    <path
      id="Path_17"
      data-name="Path 17"
      d="M203.078,176.37a.151.151,0,0,1,.18.242l-5.8,5.133a.31.31,0,0,0-.1.2l-.209,3.128a.06.06,0,0,1-.117.011l-.935-4.1a.312.312,0,0,1,.133-.358Z"
      transform="translate(-186.933 -168.123)"
      fill="#9ec2e5"
    />
    <path
      id="Path_18"
      data-name="Path 18"
      d="M114.487,143.377a.536.536,0,0,1-.334-.348l-1.185-3.761-3.176-.938a.456.456,0,0,1-.037-.862l12.5-4.869a.641.641,0,0,1,.776.254.674.674,0,0,0-.1-.121l-8.478,6.921v.3l-.047-.034.047,1.908v1.53a.3.3,0,0,0,.038.014v0Z"
      transform="translate(-104.362 -126.374)"
      fill="#fff"
    />
    <g id="Group_554" data-name="Group 554" transform="translate(10.087 6.358)">
      <path
        id="Path_19"
        data-name="Path 19"
        d="M225.024,136.791a.7.7,0,0,1-.014.171l-2.134,10.2a.672.672,0,0,1-1.055.4L218.6,145.2l-2.256-1.614v-.3l8.478-6.921a.67.67,0,0,1,.1.121l.017.027.015.028c0,.01.01.019.014.029l.013.031c0,.009.007.018.01.029a.635.635,0,0,1,.024.1C225.02,136.747,225.022,136.768,225.024,136.791Z"
        transform="translate(-216.343 -136.364)"
        fill="#d1d1d1"
      />
      <path
        id="Path_20"
        data-name="Path 20"
        d="M218.6,292.924l-1.642,1.677c-.014.014-.028.027-.043.039s-.029.022-.044.033h0a.563.563,0,0,1-.095.051.4.4,0,0,1-.05.017.544.544,0,0,1-.212.019c-.018,0-.037,0-.055-.008l-.007,0-.053-.015a.073.073,0,0,1-.017-.006l-.038-1.545V291.31Z"
        transform="translate(-216.344 -284.086)"
        fill="#d1d1d1"
      />
    </g>
    <g
      id="Group_555"
      data-name="Group 555"
      transform="translate(10.257 16.913)"
    >
      <path
        id="Path_21"
        data-name="Path 21"
        d="M227.7,362.73c-.014.012-.029.023-.044.034h0C227.667,362.753,227.682,362.742,227.7,362.73Z"
        transform="translate(-227.294 -362.73)"
        fill="#dadde0"
      />
      <path
        id="Path_22"
        data-name="Path 22"
        d="M227.636,363.437h0Z"
        transform="translate(-227.278 -363.404)"
        fill="#dadde0"
      />
      <path
        id="Path_23"
        data-name="Path 23"
        d="M225.6,363.506a.564.564,0,0,0,.095-.051A.608.608,0,0,1,225.6,363.506Z"
        transform="translate(-225.339 -363.421)"
        fill="#dadde0"
      />
      <path
        id="Path_24"
        data-name="Path 24"
        d="M219.981,364.921a.544.544,0,0,0,.212-.019.511.511,0,0,1-.155.023l-.047,0A.02.02,0,0,1,219.981,364.921Z"
        transform="translate(-219.981 -364.801)"
        fill="#dadde0"
      />
    </g>
    <g
      id="Group_556"
      data-name="Group 556"
      transform="translate(10.218 17.028)"
    >
      <path
        id="Path_25"
        data-name="Path 25"
        d="M220.235,365.352l-.047,0Z"
        transform="translate(-220.14 -365.344)"
        fill="#fff"
      />
      <path
        id="Path_26"
        data-name="Path 26"
        d="M219.193,365.217a.021.021,0,0,0,.01,0,.312.312,0,0,1-.048-.006Z"
        transform="translate(-219.154 -365.212)"
        fill="#fff"
      />
    </g>
    <g
      id="Group_557"
      data-name="Group 557"
      transform="translate(10.142 17.008)"
    >
      <path
        id="Path_27"
        data-name="Path 27"
        d="M218.864,365.152l-.039,0-.016,0C218.827,365.147,218.845,365.15,218.864,365.152Z"
        transform="translate(-218.749 -365.127)"
        fill="#dadde0"
      />
      <path
        id="Path_28"
        data-name="Path 28"
        d="M217.516,364.782l.053.015-.022,0-.009,0Z"
        transform="translate(-217.516 -364.782)"
        fill="#dadde0"
      />
    </g>
    <g
      id="Group_558"
      data-name="Group 558"
      transform="translate(10.128 17.004)"
    >
      <path
        id="Path_29"
        data-name="Path 29"
        d="M218.188,365.006l.022,0Z"
        transform="translate(-218.143 -364.992)"
        fill="#fff"
      />
      <path
        id="Path_30"
        data-name="Path 30"
        d="M217.237,364.7l.023.007a.208.208,0,0,1-.036-.011Z"
        transform="translate(-217.223 -364.696)"
        fill="#fff"
      />
    </g>
    <path
      id="Path_31"
      data-name="Path 31"
      d="M217.171,364.651l-.014,0h0v0A.076.076,0,0,0,217.171,364.651Z"
      transform="translate(-207.029 -347.643)"
      fill="#dadde0"
    />
    <path
      id="Path_32"
      data-name="Path 32"
      d="M216.343,331.511l.038,1.545-.038-.014Z"
      transform="translate(-206.256 -316.054)"
      fill="#d1d1d1"
    />
    <path
      id="Path_33"
      data-name="Path 33"
      d="M215.39,290.619v1.874l-.047-1.908Z"
      transform="translate(-205.302 -277.036)"
      fill="#dadde0"
    />
    <path
      id="Path_34"
      data-name="Path 34"
      d="M203.257,176.613l-5.8,5.133a.31.31,0,0,0-.1.2l-.209,3.129a.06.06,0,0,1-.117.011l-.934-4.105a.311.311,0,0,1,.133-.358l6.855-4.251A.151.151,0,0,1,203.257,176.613Z"
      transform="translate(-186.932 -168.124)"
      fill="#adbcc9"
    />
  </svg>