 <svg
    xmlns="http://www.w3.org/2000/svg"
    width="1em"
    height="1em"
    viewBox="0 0 24.033 24"
  >
    <g id="XMLID_1419_" transform="translate(-2.3 -1.1)">
      <path
        id="XMLID_1421_"
        d="M14.317,25.1h0A12,12,0,0,1,2.3,13.117h0A12.028,12.028,0,0,1,14.317,1.1h0A12.028,12.028,0,0,1,26.333,13.117h0A12,12,0,0,1,14.317,25.1Z"
        fill="#3f5d9b"
      />
      <path
        id="XMLID_1420_"
        d="M29.706,29.827h2.912V22.5H34.66l.2-2.444H32.618V18.647c0-.569.1-.8.669-.8h1.573V15.3H32.853c-2.176,0-3.146.971-3.146,2.778V20.02H28.2V22.5h1.506v7.331Z"
        transform="translate(-17.231 -9.447)"
        fill="#fff"
      />
    </g>
  </svg>