<svg
    id="_6769607841582882390"
    data-name="6769607841582882390"
    xmlns="http://www.w3.org/2000/svg"
    width="1em"
    height="1em"
    viewBox="0 0 24 24"
  >
    <path
      id="Path_46"
      data-name="Path 46"
      d="M12,0A12,12,0,1,1,0,12,12,12,0,0,1,12,0Z"
      fill="#75b73b"
    />
    <path
      id="Path_41"
      data-name="Path 41"
      d="M123.155,124.67c-.7-.174-1.719-.775-2.381-1.016-2.586-.808-6.061-.162-7.03,2.828a.486.486,0,0,1-.323.081c-1.939,2.263-.646,5.01-.808,7.515A3.9,3.9,0,0,1,111.5,136.4l5.029,5.024a12.008,12.008,0,0,0,13.569-9.818Z"
      transform="translate(-106.269 -117.553)"
      fill="#52891d"
    />
    <g id="Group_559" data-name="Group 559" transform="translate(5.131 5.075)">
      <path
        id="Path_42"
        data-name="Path 42"
        d="M116,108.284a6.871,6.871,0,0,0-5.785,9.98l-.729,3.54a.267.267,0,0,0,.323.314l3.469-.822A6.869,6.869,0,1,0,116,108.284Zm4.139,10.664a5.382,5.382,0,0,1-6.2,1.014l-.483-.241-2.127.5.448-2.173-.238-.466a5.383,5.383,0,0,1,.991-6.244,5.378,5.378,0,0,1,7.606,7.606Z"
        transform="translate(-109.467 -108.276)"
        fill="#fff"
      />
      <path
        id="Path_43"
        data-name="Path 43"
        d="M188.967,188.976l-1.331-.382a.5.5,0,0,0-.491.129l-.325.331a.484.484,0,0,1-.527.111A7.1,7.1,0,0,1,184,187.145a.484.484,0,0,1,.038-.537l.284-.367a.5.5,0,0,0,.061-.5l-.56-1.266a.5.5,0,0,0-.775-.177,2.237,2.237,0,0,0-.865,1.32c-.094.932.305,2.107,1.817,3.518,1.746,1.63,3.145,1.845,4.056,1.625a2.236,2.236,0,0,0,1.19-1.037.5.5,0,0,0-.281-.744Z"
        transform="translate(-178.765 -180.618)"
        fill="#fff"
      />
    </g>
    <g id="Group_560" data-name="Group 560" transform="translate(5.158 6.924)">
      <path
        id="Path_44"
        data-name="Path 44"
        d="M121.558,147.708l-1.042,1.068c.053.049.106.1.157.15a5.379,5.379,0,0,1-6.2,8.62l-.483-.241-2.127.5.044-.213-1.883,1.93a.268.268,0,0,0,.316.176l3.469-.822a6.869,6.869,0,0,0,7.746-11.172Z"
        transform="translate(-110.028 -147.708)"
        fill="#d1d1d1"
      />
      <path
        id="Path_45"
        data-name="Path 45"
        d="M224.224,268.617l-1.331-.382a.5.5,0,0,0-.491.129l-.325.331a.484.484,0,0,1-.527.111,6.069,6.069,0,0,1-1.462-1.074l-.925.948.1.091c1.746,1.63,3.145,1.845,4.056,1.625a2.236,2.236,0,0,0,1.19-1.037A.5.5,0,0,0,224.224,268.617Z"
        transform="translate(-214.048 -262.107)"
        fill="#d1d1d1"
      />
    </g>
  </svg>